<svg xmlns="http://www.w3.org/2000/svg" xmlns:xlink="http://www.w3.org/1999/xlink" width="500" zoomAndPan="magnify" viewBox="0 0 375 374.999991" height="500" preserveAspectRatio="xMidYMid meet" version="1.0"><defs><clipPath id="214cdc65cd"><path d="M 127 44 L 248 44 L 248 114 L 127 114 Z M 127 44 " clip-rule="nonzero"/></clipPath><clipPath id="54ad149320"><path d="M 155.867188 27.648438 L 247.855469 78.730469 L 219.128906 130.464844 L 127.140625 79.382812 Z M 155.867188 27.648438 " clip-rule="nonzero"/></clipPath><clipPath id="8d65e3e660"><path d="M 186.367188 44.585938 L 247.855469 78.730469 L 188.628906 113.527344 L 127.140625 79.382812 L 186.367188 44.585938 " clip-rule="nonzero"/></clipPath><clipPath id="1c7f1075a6"><path d="M 54.058594 154.453125 L 320.941406 154.453125 L 320.941406 316.375 L 54.058594 316.375 Z M 54.058594 154.453125 " clip-rule="nonzero"/></clipPath><clipPath id="3a84b8f172"><path d="M 187.5 316.375 L 320.941406 154.453125 L 54.058594 154.453125 L 187.5 316.375 " clip-rule="nonzero"/></clipPath><clipPath id="9109286c13"><path d="M 81.882812 168.441406 L 293.117188 168.441406 L 293.117188 296.601562 L 81.882812 296.601562 Z M 81.882812 168.441406 " clip-rule="nonzero"/></clipPath><clipPath id="2608a7a8a5"><path d="M 187.5 296.601562 L 293.117188 168.441406 L 81.882812 168.441406 L 187.5 296.601562 " clip-rule="nonzero"/></clipPath><clipPath id="23562cf264"><path d="M 127.546875 79.054688 L 189.074219 79.054688 L 189.074219 235.414062 L 127.546875 235.414062 Z M 127.546875 79.054688 " clip-rule="nonzero"/></clipPath><clipPath id="8b892b8662"><path d="M 189.074219 107.878906 L 189.074219 235.414062 L 127.546875 206.589844 L 127.546875 79.054688 L 189.074219 107.878906 " clip-rule="nonzero"/></clipPath><clipPath id="0d7233b0e5"><path d="M 187.523438 78.03125 L 247.859375 78.03125 L 247.859375 235.40625 L 187.523438 235.40625 Z M 187.523438 78.03125 " clip-rule="nonzero"/></clipPath><clipPath id="dfecce11fd"><path d="M 187.523438 106.15625 L 187.523438 235.40625 L 247.859375 207.28125 L 247.859375 78.03125 L 187.523438 106.15625 " clip-rule="nonzero"/></clipPath><clipPath id="944bdabb63"><path d="M 132 96 L 144 96 L 144 120 L 132 120 Z M 132 96 " clip-rule="nonzero"/></clipPath><clipPath id="e52e2cc470"><path d="M 142.734375 96.277344 L 143.394531 119.996094 L 133.234375 120.28125 L 132.578125 96.558594 Z M 142.734375 96.277344 " clip-rule="nonzero"/></clipPath><clipPath id="dc18a6394b"><path d="M 142.902344 102.265625 L 143.394531 119.996094 L 133.070312 114.292969 L 132.578125 96.558594 L 142.902344 102.265625 " clip-rule="nonzero"/></clipPath><clipPath id="3bc5264195"><path d="M 132 128 L 144 128 L 144 152 L 132 152 Z M 132 128 " clip-rule="nonzero"/></clipPath><clipPath id="ce6cfda1cd"><path d="M 142.578125 127.761719 L 143.234375 151.488281 L 133.171875 151.769531 L 132.511719 128.039062 Z M 142.578125 127.761719 " clip-rule="nonzero"/></clipPath><clipPath id="a07ccb4312"><path d="M 142.742188 133.691406 L 143.234375 151.488281 L 133.007812 145.835938 L 132.511719 128.039062 L 142.742188 133.691406 " clip-rule="nonzero"/></clipPath><clipPath id="dd61ea73ad"><path d="M 132 162 L 144 162 L 144 187 L 132 187 Z M 132 162 " clip-rule="nonzero"/></clipPath><clipPath id="0fb43eb29b"><path d="M 142.730469 162.019531 L 143.398438 186.109375 L 133.183594 186.390625 L 132.515625 162.304688 Z M 142.730469 162.019531 " clip-rule="nonzero"/></clipPath><clipPath id="a652990781"><path d="M 142.898438 168.042969 L 143.398438 186.109375 L 133.015625 180.367188 L 132.515625 162.304688 L 142.898438 168.042969 " clip-rule="nonzero"/></clipPath><clipPath id="0e71aa867d"><path d="M 149 104 L 164 104 L 164 133 L 149 133 Z M 149 104 " clip-rule="nonzero"/></clipPath><clipPath id="4761e2f68d"><path d="M 162.792969 103.832031 L 163.578125 132.183594 L 150.03125 132.558594 L 149.246094 104.210938 Z M 162.792969 103.832031 " clip-rule="nonzero"/></clipPath><clipPath id="0a509ce8d3"><path d="M 163.011719 111.820312 L 163.578125 132.183594 L 149.8125 124.574219 L 149.246094 104.210938 L 163.011719 111.820312 " clip-rule="nonzero"/></clipPath><clipPath id="4be2485a14"><path d="M 149 137 L 164 137 L 164 164 L 149 164 Z M 149 137 " clip-rule="nonzero"/></clipPath><clipPath id="0728920e6a"><path d="M 162.792969 137.289062 L 163.519531 163.566406 L 149.972656 163.941406 L 149.246094 137.664062 Z M 162.792969 137.289062 " clip-rule="nonzero"/></clipPath><clipPath id="4f6ef7d666"><path d="M 163.011719 145.273438 L 163.519531 163.566406 L 149.753906 155.957031 L 149.246094 137.664062 L 163.011719 145.273438 " clip-rule="nonzero"/></clipPath><clipPath id="bd3f758305"><path d="M 149 172 L 164 172 L 164 198 L 149 198 Z M 149 172 " clip-rule="nonzero"/></clipPath><clipPath id="26d02700a8"><path d="M 162.578125 172.25 L 163.292969 197.996094 L 149.960938 198.367188 L 149.246094 172.617188 Z M 162.578125 172.25 " clip-rule="nonzero"/></clipPath><clipPath id="ebefe48fbc"><path d="M 162.796875 180.109375 L 163.292969 197.996094 L 149.742188 190.507812 L 149.246094 172.617188 L 162.796875 180.109375 " clip-rule="nonzero"/></clipPath><clipPath id="36d73933d4"><path d="M 167 114 L 185 114 L 185 145 L 167 145 Z M 167 114 " clip-rule="nonzero"/></clipPath><clipPath id="36256fd9d9"><path d="M 183.261719 113.632812 L 184.109375 144.09375 L 168.242188 144.535156 L 167.398438 114.074219 Z M 183.261719 113.632812 " clip-rule="nonzero"/></clipPath><clipPath id="2ba6c16fb3"><path d="M 183.523438 122.988281 L 184.109375 144.09375 L 167.984375 135.183594 L 167.398438 114.074219 L 183.523438 122.988281 " clip-rule="nonzero"/></clipPath><clipPath id="26d1609726"><path d="M 167 147 L 185 147 L 185 176 L 167 176 Z M 167 147 " clip-rule="nonzero"/></clipPath><clipPath id="cab6007291"><path d="M 183.796875 146.914062 L 184.597656 175.832031 L 168.734375 176.273438 L 167.929688 147.351562 Z M 183.796875 146.914062 " clip-rule="nonzero"/></clipPath><clipPath id="b6e80ba37b"><path d="M 184.054688 156.265625 L 184.597656 175.832031 L 168.472656 166.917969 L 167.929688 147.351562 L 184.054688 156.265625 " clip-rule="nonzero"/></clipPath><clipPath id="9a7f37a949"><path d="M 167 185 L 185 185 L 185 212 L 167 212 Z M 167 185 " clip-rule="nonzero"/></clipPath><clipPath id="3ff78a30c2"><path d="M 183.800781 184.761719 L 184.542969 211.484375 L 168.675781 211.921875 L 167.933594 185.203125 Z M 183.800781 184.761719 " clip-rule="nonzero"/></clipPath><clipPath id="9e0e534294"><path d="M 184.058594 194.113281 L 184.542969 211.484375 L 168.417969 202.570312 L 167.933594 185.203125 L 184.058594 194.113281 " clip-rule="nonzero"/></clipPath><clipPath id="4aab958d75"><path d="M 144 59 L 231 59 L 231 109 L 144 109 Z M 144 59 " clip-rule="nonzero"/></clipPath><clipPath id="9861632bdf"><path d="M 164.9375 47.152344 L 230.601562 83.617188 L 210.09375 120.550781 L 144.429688 84.085938 Z M 164.9375 47.152344 " clip-rule="nonzero"/></clipPath><clipPath id="cafc0b9610"><path d="M 186.707031 59.242188 L 230.601562 83.617188 L 188.324219 108.460938 L 144.429688 84.085938 L 186.707031 59.242188 " clip-rule="nonzero"/></clipPath></defs><g clip-path="url(#214cdc65cd)"><g clip-path="url(#54ad149320)"><g clip-path="url(#8d65e3e660)"><path fill="#353d93" d="M 155.867188 27.648438 L 247.855469 78.730469 L 219.128906 130.464844 L 127.140625 79.382812 Z M 155.867188 27.648438 " fill-opacity="1" fill-rule="nonzero"/></g></g></g><g clip-path="url(#1c7f1075a6)"><g clip-path="url(#3a84b8f172)"><path fill="#929183" d="M 54.058594 154.453125 L 320.941406 154.453125 L 320.941406 316.375 L 54.058594 316.375 Z M 54.058594 154.453125 " fill-opacity="1" fill-rule="nonzero"/></g></g><g clip-path="url(#9109286c13)"><g clip-path="url(#2608a7a8a5)"><path fill="#ffffff" d="M 81.882812 168.441406 L 293.117188 168.441406 L 293.117188 296.601562 L 81.882812 296.601562 Z M 81.882812 168.441406 " fill-opacity="1" fill-rule="nonzero"/></g></g><g clip-path="url(#23562cf264)"><g clip-path="url(#8b892b8662)"><path fill="#353d93" d="M 189.074219 79.054688 L 189.074219 235.414062 L 127.546875 235.414062 L 127.546875 79.054688 Z M 189.074219 79.054688 " fill-opacity="1" fill-rule="nonzero"/></g></g><g clip-path="url(#0d7233b0e5)"><g clip-path="url(#dfecce11fd)"><path fill="#353d93" d="M 187.523438 235.40625 L 187.523438 78.03125 L 247.859375 78.03125 L 247.859375 235.40625 Z M 187.523438 235.40625 " fill-opacity="1" fill-rule="nonzero"/></g></g><g clip-path="url(#944bdabb63)"><g clip-path="url(#e52e2cc470)"><g clip-path="url(#dc18a6394b)"><path fill="#ffffff" d="M 142.734375 96.277344 L 143.394531 119.996094 L 133.234375 120.28125 L 132.578125 96.558594 Z M 142.734375 96.277344 " fill-opacity="1" fill-rule="nonzero"/></g></g></g><g clip-path="url(#3bc5264195)"><g clip-path="url(#ce6cfda1cd)"><g clip-path="url(#a07ccb4312)"><path fill="#ffffff" d="M 142.578125 127.761719 L 143.234375 151.488281 L 133.171875 151.769531 L 132.511719 128.039062 Z M 142.578125 127.761719 " fill-opacity="1" fill-rule="nonzero"/></g></g></g><g clip-path="url(#dd61ea73ad)"><g clip-path="url(#0fb43eb29b)"><g clip-path="url(#a652990781)"><path fill="#ffffff" d="M 142.730469 162.019531 L 143.398438 186.109375 L 133.183594 186.390625 L 132.515625 162.304688 Z M 142.730469 162.019531 " fill-opacity="1" fill-rule="nonzero"/></g></g></g><g clip-path="url(#0e71aa867d)"><g clip-path="url(#4761e2f68d)"><g clip-path="url(#0a509ce8d3)"><path fill="#ffffff" d="M 162.792969 103.832031 L 163.578125 132.183594 L 150.03125 132.558594 L 149.246094 104.210938 Z M 162.792969 103.832031 " fill-opacity="1" fill-rule="nonzero"/></g></g></g><g clip-path="url(#4be2485a14)"><g clip-path="url(#0728920e6a)"><g clip-path="url(#4f6ef7d666)"><path fill="#ffffff" d="M 162.792969 137.289062 L 163.519531 163.566406 L 149.972656 163.941406 L 149.246094 137.664062 Z M 162.792969 137.289062 " fill-opacity="1" fill-rule="nonzero"/></g></g></g><g clip-path="url(#bd3f758305)"><g clip-path="url(#26d02700a8)"><g clip-path="url(#ebefe48fbc)"><path fill="#ffffff" d="M 162.578125 172.25 L 163.292969 197.996094 L 149.960938 198.367188 L 149.246094 172.617188 Z M 162.578125 172.25 " fill-opacity="1" fill-rule="nonzero"/></g></g></g><g clip-path="url(#36d73933d4)"><g clip-path="url(#36256fd9d9)"><g clip-path="url(#2ba6c16fb3)"><path fill="#ffffff" d="M 183.261719 113.632812 L 184.109375 144.09375 L 168.242188 144.535156 L 167.398438 114.074219 Z M 183.261719 113.632812 " fill-opacity="1" fill-rule="nonzero"/></g></g></g><g clip-path="url(#26d1609726)"><g clip-path="url(#cab6007291)"><g clip-path="url(#b6e80ba37b)"><path fill="#ffffff" d="M 183.796875 146.914062 L 184.597656 175.832031 L 168.734375 176.273438 L 167.929688 147.351562 Z M 183.796875 146.914062 " fill-opacity="1" fill-rule="nonzero"/></g></g></g><g clip-path="url(#9a7f37a949)"><g clip-path="url(#3ff78a30c2)"><g clip-path="url(#9e0e534294)"><path fill="#ffffff" d="M 183.800781 184.761719 L 184.542969 211.484375 L 168.675781 211.921875 L 167.933594 185.203125 Z M 183.800781 184.761719 " fill-opacity="1" fill-rule="nonzero"/></g></g></g><g clip-path="url(#4aab958d75)"><g clip-path="url(#9861632bdf)"><g clip-path="url(#cafc0b9610)"><path fill="#ffffff" d="M 164.9375 47.152344 L 230.601562 83.617188 L 210.09375 120.550781 L 144.429688 84.085938 Z M 164.9375 47.152344 " fill-opacity="1" fill-rule="nonzero"/></g></g></g></svg>